<svg id="visual" viewBox="0 0 960 540" width="960" height="540" xmlns="http://www.w3.org/2000/svg" xmlns:xlink="http://www.w3.org/1999/xlink" version="1.1"><rect x="0" y="0" width="960" height="540" fill="#F7770F"></rect><defs><linearGradient id="grad1_0" x1="43.8%" y1="100%" x2="100%" y2="0%"><stop offset="14.444444444444446%" stop-color="#f5efbf" stop-opacity="1"></stop><stop offset="85.55555555555554%" stop-color="#f5efbf" stop-opacity="1"></stop></linearGradient></defs><defs><linearGradient id="grad1_1" x1="43.8%" y1="100%" x2="100%" y2="0%"><stop offset="14.444444444444446%" stop-color="#f5efbf" stop-opacity="1"></stop><stop offset="85.55555555555554%" stop-color="#f1e1a3" stop-opacity="1"></stop></linearGradient></defs><defs><linearGradient id="grad1_2" x1="43.8%" y1="100%" x2="100%" y2="0%"><stop offset="14.444444444444446%" stop-color="#f0d387" stop-opacity="1"></stop><stop offset="85.55555555555554%" stop-color="#f1e1a3" stop-opacity="1"></stop></linearGradient></defs><defs><linearGradient id="grad1_3" x1="43.8%" y1="100%" x2="100%" y2="0%"><stop offset="14.444444444444446%" stop-color="#f0d387" stop-opacity="1"></stop><stop offset="85.55555555555554%" stop-color="#efc36d" stop-opacity="1"></stop></linearGradient></defs><defs><linearGradient id="grad1_4" x1="43.8%" y1="100%" x2="100%" y2="0%"><stop offset="14.444444444444446%" stop-color="#f0b353" stop-opacity="1"></stop><stop offset="85.55555555555554%" stop-color="#efc36d" stop-opacity="1"></stop></linearGradient></defs><defs><linearGradient id="grad1_5" x1="43.8%" y1="100%" x2="100%" y2="0%"><stop offset="14.444444444444446%" stop-color="#f0b353" stop-opacity="1"></stop><stop offset="85.55555555555554%" stop-color="#f2a13c" stop-opacity="1"></stop></linearGradient></defs><defs><linearGradient id="grad1_6" x1="43.8%" y1="100%" x2="100%" y2="0%"><stop offset="14.444444444444446%" stop-color="#f48d25" stop-opacity="1"></stop><stop offset="85.55555555555554%" stop-color="#f2a13c" stop-opacity="1"></stop></linearGradient></defs><defs><linearGradient id="grad1_7" x1="43.8%" y1="100%" x2="100%" y2="0%"><stop offset="14.444444444444446%" stop-color="#f48d25" stop-opacity="1"></stop><stop offset="85.55555555555554%" stop-color="#f7770f" stop-opacity="1"></stop></linearGradient></defs><defs><linearGradient id="grad2_0" x1="0%" y1="100%" x2="56.3%" y2="0%"><stop offset="14.444444444444446%" stop-color="#f5efbf" stop-opacity="1"></stop><stop offset="85.55555555555554%" stop-color="#f5efbf" stop-opacity="1"></stop></linearGradient></defs><defs><linearGradient id="grad2_1" x1="0%" y1="100%" x2="56.3%" y2="0%"><stop offset="14.444444444444446%" stop-color="#f1e1a3" stop-opacity="1"></stop><stop offset="85.55555555555554%" stop-color="#f5efbf" stop-opacity="1"></stop></linearGradient></defs><defs><linearGradient id="grad2_2" x1="0%" y1="100%" x2="56.3%" y2="0%"><stop offset="14.444444444444446%" stop-color="#f1e1a3" stop-opacity="1"></stop><stop offset="85.55555555555554%" stop-color="#f0d387" stop-opacity="1"></stop></linearGradient></defs><defs><linearGradient id="grad2_3" x1="0%" y1="100%" x2="56.3%" y2="0%"><stop offset="14.444444444444446%" stop-color="#efc36d" stop-opacity="1"></stop><stop offset="85.55555555555554%" stop-color="#f0d387" stop-opacity="1"></stop></linearGradient></defs><defs><linearGradient id="grad2_4" x1="0%" y1="100%" x2="56.3%" y2="0%"><stop offset="14.444444444444446%" stop-color="#efc36d" stop-opacity="1"></stop><stop offset="85.55555555555554%" stop-color="#f0b353" stop-opacity="1"></stop></linearGradient></defs><defs><linearGradient id="grad2_5" x1="0%" y1="100%" x2="56.3%" y2="0%"><stop offset="14.444444444444446%" stop-color="#f2a13c" stop-opacity="1"></stop><stop offset="85.55555555555554%" stop-color="#f0b353" stop-opacity="1"></stop></linearGradient></defs><defs><linearGradient id="grad2_6" x1="0%" y1="100%" x2="56.3%" y2="0%"><stop offset="14.444444444444446%" stop-color="#f2a13c" stop-opacity="1"></stop><stop offset="85.55555555555554%" stop-color="#f48d25" stop-opacity="1"></stop></linearGradient></defs><defs><linearGradient id="grad2_7" x1="0%" y1="100%" x2="56.3%" y2="0%"><stop offset="14.444444444444446%" stop-color="#f7770f" stop-opacity="1"></stop><stop offset="85.55555555555554%" stop-color="#f48d25" stop-opacity="1"></stop></linearGradient></defs><g transform="translate(960, 540)"><path d="M-540 0C-537.2 -32.4 -534.5 -64.7 -518 -91.3C-501.5 -118 -471.3 -138.9 -460.4 -167.6C-449.6 -196.3 -458.1 -232.8 -446.9 -258C-435.6 -283.2 -404.5 -297.1 -387.6 -325.3C-370.7 -353.4 -368.1 -395.9 -343.2 -409.1C-318.4 -422.3 -271.4 -406.2 -243.5 -421.8C-215.6 -437.4 -207 -484.7 -184.7 -507.4C-162.4 -530.2 -126.5 -528.5 -93.4 -529.8C-60.4 -531.2 -30.2 -535.6 0 -540L0 0Z" fill="#f6821a"></path><path d="M-472.5 0C-470.1 -28.3 -467.7 -56.6 -453.3 -79.9C-438.8 -103.2 -412.4 -121.5 -402.9 -146.6C-393.4 -171.8 -400.9 -203.7 -391 -225.8C-381.1 -247.8 -353.9 -259.9 -339.2 -284.6C-324.4 -309.2 -322.1 -346.4 -300.3 -357.9C-278.6 -369.5 -237.4 -355.4 -213.1 -369C-188.7 -382.7 -181.1 -424.1 -161.6 -444C-142.1 -463.9 -110.7 -462.4 -81.7 -463.6C-52.8 -464.8 -26.4 -468.6 0 -472.5L0 0Z" fill="#f39730"></path><path d="M-405 0C-402.9 -24.3 -400.9 -48.5 -388.5 -68.5C-376.1 -88.5 -353.5 -104.2 -345.3 -125.7C-337.2 -147.2 -343.6 -174.6 -335.2 -193.5C-326.7 -212.4 -303.4 -222.8 -290.7 -243.9C-278.1 -265.1 -276.1 -296.9 -257.4 -306.8C-238.8 -316.7 -203.5 -304.6 -182.6 -316.3C-161.7 -328 -155.2 -363.5 -138.5 -380.6C-121.8 -397.7 -94.9 -396.4 -70.1 -397.4C-45.3 -398.4 -22.6 -401.7 0 -405L0 0Z" fill="#f1aa47"></path><path d="M-337.5 0C-335.8 -20.2 -334.1 -40.4 -323.8 -57.1C-313.4 -73.7 -294.6 -86.8 -287.8 -104.7C-281 -122.7 -286.3 -145.5 -279.3 -161.3C-272.2 -177 -252.8 -185.7 -242.3 -203.3C-231.7 -220.9 -230.1 -247.4 -214.5 -255.7C-199 -263.9 -169.6 -253.8 -152.2 -263.6C-134.8 -273.3 -129.4 -302.9 -115.4 -317.1C-101.5 -331.4 -79 -330.3 -58.4 -331.1C-37.7 -332 -18.9 -334.7 0 -337.5L0 0Z" fill="#f0bb60"></path><path d="M-270 0C-268.6 -16.2 -267.2 -32.4 -259 -45.7C-250.8 -59 -235.6 -69.4 -230.2 -83.8C-224.8 -98.1 -229.1 -116.4 -223.4 -129C-217.8 -141.6 -202.2 -148.5 -193.8 -162.6C-185.4 -176.7 -184 -197.9 -171.6 -204.5C-159.2 -211.1 -135.7 -203.1 -121.8 -210.9C-107.8 -218.7 -103.5 -242.3 -92.3 -253.7C-81.2 -265.1 -63.2 -264.2 -46.7 -264.9C-30.2 -265.6 -15.1 -267.8 0 -270L0 0Z" fill="#efcb7a"></path><path d="M-202.5 0C-201.5 -12.1 -200.4 -24.3 -194.3 -34.3C-188.1 -44.2 -176.7 -52.1 -172.7 -62.8C-168.6 -73.6 -171.8 -87.3 -167.6 -96.8C-163.3 -106.2 -151.7 -111.4 -145.4 -122C-139 -132.5 -138 -148.5 -128.7 -153.4C-119.4 -158.3 -101.8 -152.3 -91.3 -158.2C-80.9 -164 -77.6 -181.7 -69.3 -190.3C-60.9 -198.8 -47.4 -198.2 -35 -198.7C-22.6 -199.2 -11.3 -200.8 0 -202.5L0 0Z" fill="#f0da95"></path><path d="M-135 0C-134.3 -8.1 -133.6 -16.2 -129.5 -22.8C-125.4 -29.5 -117.8 -34.7 -115.1 -41.9C-112.4 -49.1 -114.5 -58.2 -111.7 -64.5C-108.9 -70.8 -101.1 -74.3 -96.9 -81.3C-92.7 -88.4 -92 -99 -85.8 -102.3C-79.6 -105.6 -67.8 -101.5 -60.9 -105.4C-53.9 -109.3 -51.7 -121.2 -46.2 -126.9C-40.6 -132.6 -31.6 -132.1 -23.4 -132.5C-15.1 -132.8 -7.5 -133.9 0 -135L0 0Z" fill="#f3e8b1"></path><path d="M-67.5 0C-67.2 -4 -66.8 -8.1 -64.8 -11.4C-62.7 -14.7 -58.9 -17.4 -57.6 -20.9C-56.2 -24.5 -57.3 -29.1 -55.9 -32.3C-54.4 -35.4 -50.6 -37.1 -48.5 -40.7C-46.3 -44.2 -46 -49.5 -42.9 -51.1C-39.8 -52.8 -33.9 -50.8 -30.4 -52.7C-27 -54.7 -25.9 -60.6 -23.1 -63.4C-20.3 -66.3 -15.8 -66.1 -11.7 -66.2C-7.5 -66.4 -3.8 -66.9 0 -67.5L0 0Z" fill="#f5efbf"></path></g><g transform="translate(0, 0)"><path d="M540 0C527.4 28.8 514.7 57.7 514.1 90.6C513.4 123.6 524.8 160.7 507.4 184.7C490.1 208.7 444 219.5 425.2 245.5C406.4 271.5 414.9 312.8 399.1 334.9C383.3 357 343.1 360.1 317.5 378.4C292 396.8 281 430.4 258 446.9C235 463.4 200.1 462.8 170 467C139.9 471.3 114.5 480.4 87 493.4C59.5 506.4 29.7 523.2 0 540L0 0Z" fill="#f6821a"></path><path d="M472.5 0C461.4 25.2 450.4 50.5 449.8 79.3C449.2 108.2 459.2 140.6 444 161.6C428.8 182.6 388.5 192 372.1 214.8C355.6 237.6 363.1 273.7 349.2 293C335.4 312.4 300.2 315.1 277.8 331.1C255.5 347.2 245.8 376.6 225.8 391C205.7 405.4 175.1 404.9 148.7 408.6C122.4 412.4 100.2 420.4 76.1 431.7C52 443.1 26 457.8 0 472.5L0 0Z" fill="#f39730"></path><path d="M405 0C395.5 21.6 386 43.3 385.6 68C385.1 92.7 393.6 120.5 380.6 138.5C367.6 156.5 333 164.6 318.9 184.1C304.8 203.6 311.2 234.6 299.3 251.2C287.5 267.8 257.3 270.1 238.2 283.8C219 297.6 210.7 322.8 193.5 335.2C176.3 347.5 150.1 347.1 127.5 350.3C104.9 353.5 85.9 360.3 65.2 370C44.6 379.8 22.3 392.4 0 405L0 0Z" fill="#f1aa47"></path><path d="M337.5 0C329.6 18 321.7 36 321.3 56.7C320.9 77.3 328 100.5 317.1 115.4C306.3 130.4 277.5 137.2 265.8 153.4C254 169.7 259.3 195.5 249.4 209.3C239.5 223.1 214.4 225.1 198.5 236.5C182.5 248 175.6 269 161.3 279.3C146.9 289.6 125.1 289.2 106.2 291.9C87.4 294.6 71.6 300.3 54.4 308.4C37.2 316.5 18.6 327 0 337.5L0 0Z" fill="#f0bb60"></path><path d="M270 0C263.7 14.4 257.4 28.8 257 45.3C256.7 61.8 262.4 80.4 253.7 92.3C245 104.3 222 109.7 212.6 122.7C203.2 135.8 207.5 156.4 199.6 167.4C191.6 178.5 171.6 180 158.8 189.2C146 198.4 140.5 215.2 129 223.4C117.5 231.7 100.1 231.4 85 233.5C69.9 235.6 57.3 240.2 43.5 246.7C29.7 253.2 14.9 261.6 0 270L0 0Z" fill="#efcb7a"></path><path d="M202.5 0C197.8 10.8 193 21.6 192.8 34C192.5 46.4 196.8 60.3 190.3 69.3C183.8 78.2 166.5 82.3 159.5 92.1C152.4 101.8 155.6 117.3 149.7 125.6C143.7 133.9 128.7 135 119.1 141.9C109.5 148.8 105.4 161.4 96.8 167.6C88.1 173.8 75 173.5 63.7 175.1C52.4 176.7 42.9 180.2 32.6 185C22.3 189.9 11.2 196.2 0 202.5L0 0Z" fill="#f0da95"></path><path d="M135 0C131.8 7.2 128.7 14.4 128.5 22.7C128.4 30.9 131.2 40.2 126.9 46.2C122.5 52.2 111 54.9 106.3 61.4C101.6 67.9 103.7 78.2 99.8 83.7C95.8 89.3 85.8 90 79.4 94.6C73 99.2 70.2 107.6 64.5 111.7C58.8 115.8 50 115.7 42.5 116.8C35 117.8 28.6 120.1 21.7 123.3C14.9 126.6 7.4 130.8 0 135L0 0Z" fill="#f3e8b1"></path><path d="M67.5 0C65.9 3.6 64.3 7.2 64.3 11.3C64.2 15.5 65.6 20.1 63.4 23.1C61.3 26.1 55.5 27.4 53.2 30.7C50.8 33.9 51.9 39.1 49.9 41.9C47.9 44.6 42.9 45 39.7 47.3C36.5 49.6 35.1 53.8 32.3 55.9C29.4 57.9 25 57.8 21.2 58.4C17.5 58.9 14.3 60.1 10.9 61.7C7.4 63.3 3.7 65.4 0 67.5L0 0Z" fill="#f5efbf"></path></g></svg>