<svg id="visual" viewBox="0 0 960 540" width="960" height="540" xmlns="http://www.w3.org/2000/svg" xmlns:xlink="http://www.w3.org/1999/xlink" version="1.1"><rect x="0" y="0" width="960" height="540" fill="#f5efbf"></rect><defs><linearGradient id="grad1_0" x1="43.8%" y1="0%" x2="100%" y2="100%"><stop offset="14.444444444444446%" stop-color="#f7770f" stop-opacity="1"></stop><stop offset="85.55555555555554%" stop-color="#f7770f" stop-opacity="1"></stop></linearGradient></defs><defs><linearGradient id="grad1_1" x1="43.8%" y1="0%" x2="100%" y2="100%"><stop offset="14.444444444444446%" stop-color="#f7770f" stop-opacity="1"></stop><stop offset="85.55555555555554%" stop-color="#f48d25" stop-opacity="1"></stop></linearGradient></defs><defs><linearGradient id="grad1_2" x1="43.8%" y1="0%" x2="100%" y2="100%"><stop offset="14.444444444444446%" stop-color="#f2a13c" stop-opacity="1"></stop><stop offset="85.55555555555554%" stop-color="#f48d25" stop-opacity="1"></stop></linearGradient></defs><defs><linearGradient id="grad1_3" x1="43.8%" y1="0%" x2="100%" y2="100%"><stop offset="14.444444444444446%" stop-color="#f2a13c" stop-opacity="1"></stop><stop offset="85.55555555555554%" stop-color="#f0b353" stop-opacity="1"></stop></linearGradient></defs><defs><linearGradient id="grad1_4" x1="43.8%" y1="0%" x2="100%" y2="100%"><stop offset="14.444444444444446%" stop-color="#efc36d" stop-opacity="1"></stop><stop offset="85.55555555555554%" stop-color="#f0b353" stop-opacity="1"></stop></linearGradient></defs><defs><linearGradient id="grad1_5" x1="43.8%" y1="0%" x2="100%" y2="100%"><stop offset="14.444444444444446%" stop-color="#efc36d" stop-opacity="1"></stop><stop offset="85.55555555555554%" stop-color="#f0d387" stop-opacity="1"></stop></linearGradient></defs><defs><linearGradient id="grad1_6" x1="43.8%" y1="0%" x2="100%" y2="100%"><stop offset="14.444444444444446%" stop-color="#f1e1a3" stop-opacity="1"></stop><stop offset="85.55555555555554%" stop-color="#f0d387" stop-opacity="1"></stop></linearGradient></defs><defs><linearGradient id="grad1_7" x1="43.8%" y1="0%" x2="100%" y2="100%"><stop offset="14.444444444444446%" stop-color="#f1e1a3" stop-opacity="1"></stop><stop offset="85.55555555555554%" stop-color="#f5efbf" stop-opacity="1"></stop></linearGradient></defs><defs><linearGradient id="grad2_0" x1="0%" y1="0%" x2="56.3%" y2="100%"><stop offset="14.444444444444446%" stop-color="#f7770f" stop-opacity="1"></stop><stop offset="85.55555555555554%" stop-color="#f7770f" stop-opacity="1"></stop></linearGradient></defs><defs><linearGradient id="grad2_1" x1="0%" y1="0%" x2="56.3%" y2="100%"><stop offset="14.444444444444446%" stop-color="#f48d25" stop-opacity="1"></stop><stop offset="85.55555555555554%" stop-color="#f7770f" stop-opacity="1"></stop></linearGradient></defs><defs><linearGradient id="grad2_2" x1="0%" y1="0%" x2="56.3%" y2="100%"><stop offset="14.444444444444446%" stop-color="#f48d25" stop-opacity="1"></stop><stop offset="85.55555555555554%" stop-color="#f2a13c" stop-opacity="1"></stop></linearGradient></defs><defs><linearGradient id="grad2_3" x1="0%" y1="0%" x2="56.3%" y2="100%"><stop offset="14.444444444444446%" stop-color="#f0b353" stop-opacity="1"></stop><stop offset="85.55555555555554%" stop-color="#f2a13c" stop-opacity="1"></stop></linearGradient></defs><defs><linearGradient id="grad2_4" x1="0%" y1="0%" x2="56.3%" y2="100%"><stop offset="14.444444444444446%" stop-color="#f0b353" stop-opacity="1"></stop><stop offset="85.55555555555554%" stop-color="#efc36d" stop-opacity="1"></stop></linearGradient></defs><defs><linearGradient id="grad2_5" x1="0%" y1="0%" x2="56.3%" y2="100%"><stop offset="14.444444444444446%" stop-color="#f0d387" stop-opacity="1"></stop><stop offset="85.55555555555554%" stop-color="#efc36d" stop-opacity="1"></stop></linearGradient></defs><defs><linearGradient id="grad2_6" x1="0%" y1="0%" x2="56.3%" y2="100%"><stop offset="14.444444444444446%" stop-color="#f0d387" stop-opacity="1"></stop><stop offset="85.55555555555554%" stop-color="#f1e1a3" stop-opacity="1"></stop></linearGradient></defs><defs><linearGradient id="grad2_7" x1="0%" y1="0%" x2="56.3%" y2="100%"><stop offset="14.444444444444446%" stop-color="#f5efbf" stop-opacity="1"></stop><stop offset="85.55555555555554%" stop-color="#f1e1a3" stop-opacity="1"></stop></linearGradient></defs><g transform="translate(960, 0)"><path d="M0 540C-32 540.2 -63.9 540.3 -93.8 531.8C-123.6 523.2 -151.3 506 -178.2 489.6C-205.1 473.2 -231.1 457.7 -253.5 439.1C-275.9 420.5 -294.6 398.9 -323.3 385.3C-352 371.8 -390.7 366.3 -412.9 346.5C-435.1 326.6 -440.8 292.3 -456.4 263.5C-472 234.7 -497.5 211.3 -499 181.6C-500.4 152 -477.8 116.1 -480.6 84.7C-483.4 53.4 -511.7 26.7 -540 0L0 0Z" fill="#f3e8b1"></path><path d="M0 472.5C-28 472.7 -55.9 472.8 -82 465.3C-108.2 457.8 -132.4 442.7 -155.9 428.4C-179.4 414 -202.2 400.4 -221.8 384.2C-241.4 367.9 -257.8 349 -282.9 337.2C-308 325.3 -341.9 320.5 -361.3 303.2C-380.7 285.8 -385.7 255.8 -399.3 230.6C-413 205.3 -435.3 184.9 -436.6 158.9C-437.9 133 -418 101.5 -420.5 74.1C-423 46.8 -447.7 23.4 -472.5 0L0 0Z" fill="#f0da95"></path><path d="M0 405C-24 405.1 -47.9 405.3 -70.3 398.8C-92.7 392.4 -113.5 379.5 -133.6 367.2C-153.8 354.9 -173.3 343.2 -190.1 329.3C-206.9 315.4 -221 299.1 -242.5 289C-264 278.8 -293 274.7 -309.7 259.8C-326.3 245 -330.6 219.3 -342.3 197.6C-354 176 -373.2 158.4 -374.2 136.2C-375.3 114 -358.3 87 -360.4 63.6C-362.6 40.1 -383.8 20 -405 0L0 0Z" fill="#efcb7a"></path><path d="M0 337.5C-20 337.6 -40 337.7 -58.6 332.4C-77.3 327 -94.6 316.2 -111.4 306C-128.2 295.7 -144.4 286 -158.4 274.4C-172.4 262.8 -184.1 249.3 -202.1 240.8C-220 232.4 -244.2 229 -258.1 216.5C-271.9 204.1 -275.5 182.7 -285.2 164.7C-295 146.7 -311 132 -311.9 113.5C-312.8 95 -298.6 72.5 -300.4 53C-302.1 33.4 -319.8 16.7 -337.5 0L0 0Z" fill="#f0bb60"></path><path d="M0 270C-16 270.1 -32 270.2 -46.9 265.9C-61.8 261.6 -75.7 253 -89.1 244.8C-102.5 236.6 -115.6 228.8 -126.7 219.5C-137.9 210.2 -147.3 199.4 -161.7 192.7C-176 185.9 -195.4 183.2 -206.4 173.2C-217.5 163.3 -220.4 146.2 -228.2 131.8C-236 117.3 -248.8 105.6 -249.5 90.8C-250.2 76 -238.9 58 -240.3 42.4C-241.7 26.7 -255.9 13.4 -270 0L0 0Z" fill="#f1aa47"></path><path d="M0 202.5C-12 202.6 -24 202.6 -35.2 199.4C-46.4 196.2 -56.7 189.7 -66.8 183.6C-76.9 177.4 -86.7 171.6 -95.1 164.7C-103.5 157.7 -110.5 149.6 -121.2 144.5C-132 139.4 -146.5 137.4 -154.8 129.9C-163.2 122.5 -165.3 109.6 -171.1 98.8C-177 88 -186.6 79.2 -187.1 68.1C-187.7 57 -179.2 43.5 -180.2 31.8C-181.3 20 -191.9 10 -202.5 0L0 0Z" fill="#f39730"></path><path d="M0 135C-8 135 -16 135.1 -23.4 132.9C-30.9 130.8 -37.8 126.5 -44.5 122.4C-51.3 118.3 -57.8 114.4 -63.4 109.8C-69 105.1 -73.7 99.7 -80.8 96.3C-88 92.9 -97.7 91.6 -103.2 86.6C-108.8 81.7 -110.2 73.1 -114.1 65.9C-118 58.7 -124.4 52.8 -124.7 45.4C-125.1 38 -119.4 29 -120.1 21.2C-120.9 13.4 -127.9 6.7 -135 0L0 0Z" fill="#f6821a"></path><path d="M0 67.5C-4 67.5 -8 67.5 -11.7 66.5C-15.5 65.4 -18.9 63.2 -22.3 61.2C-25.6 59.1 -28.9 57.2 -31.7 54.9C-34.5 52.6 -36.8 49.9 -40.4 48.2C-44 46.5 -48.8 45.8 -51.6 43.3C-54.4 40.8 -55.1 36.5 -57 32.9C-59 29.3 -62.2 26.4 -62.4 22.7C-62.6 19 -59.7 14.5 -60.1 10.6C-60.4 6.7 -64 3.3 -67.5 0L0 0Z" fill="#f7770f"></path></g><g transform="translate(0, 540)"><path d="M0 -540C28.1 -516.3 56.3 -492.7 85.3 -483.5C114.2 -474.4 144 -479.9 174.1 -478.3C204.1 -476.8 234.4 -468.2 264 -457.3C293.6 -446.3 322.4 -433 347.1 -413.7C371.8 -394.4 392.3 -369.1 406.8 -341.3C421.3 -313.5 429.8 -283.1 443.4 -256C457 -228.9 475.7 -204.9 489.6 -178.2C503.4 -151.4 512.4 -121.9 520 -91.7C527.6 -61.5 533.8 -30.8 540 0L0 0Z" fill="#f3e8b1"></path><path d="M0 -472.5C24.6 -451.8 49.3 -431.1 74.6 -423.1C100 -415.1 126 -419.9 152.3 -418.5C178.6 -417.2 205.1 -409.7 231 -400.1C256.9 -390.5 282.1 -378.8 303.7 -362C325.3 -345.1 343.2 -323 355.9 -298.7C368.6 -274.3 376.1 -247.8 388 -224C399.9 -200.2 416.3 -179.3 428.4 -155.9C440.5 -132.5 448.3 -106.6 455 -80.2C461.6 -53.8 467.1 -26.9 472.5 0L0 0Z" fill="#f0da95"></path><path d="M0 -405C21.1 -387.2 42.2 -369.5 63.9 -362.7C85.7 -355.8 108 -359.9 130.6 -358.7C153.1 -357.6 175.8 -351.2 198 -342.9C220.2 -334.7 241.8 -324.7 260.3 -310.2C278.8 -295.8 294.2 -276.8 305.1 -256C316 -235.1 322.3 -212.4 332.6 -192C342.8 -171.6 356.8 -153.7 367.2 -133.6C377.6 -113.6 384.3 -91.4 390 -68.8C395.7 -46.1 400.3 -23.1 405 0L0 0Z" fill="#efcb7a"></path><path d="M0 -337.5C17.6 -322.7 35.2 -307.9 53.3 -302.2C71.4 -296.5 90 -299.9 108.8 -298.9C127.6 -298 146.5 -292.6 165 -285.8C183.5 -278.9 201.5 -270.6 216.9 -258.5C232.4 -246.5 245.2 -230.7 254.2 -213.3C263.3 -195.9 268.6 -177 277.1 -160C285.6 -143 297.3 -128.1 306 -111.4C314.6 -94.7 320.2 -76.2 325 -57.3C329.7 -38.4 333.6 -19.2 337.5 0L0 0Z" fill="#f0bb60"></path><path d="M0 -270C14.1 -258.2 28.1 -246.3 42.6 -241.8C57.1 -237.2 72 -239.9 87 -239.2C102.1 -238.4 117.2 -234.1 132 -228.6C146.8 -223.2 161.2 -216.5 173.6 -206.8C185.9 -197.2 196.1 -184.6 203.4 -170.7C210.6 -156.8 214.9 -141.6 221.7 -128C228.5 -114.4 237.9 -102.5 244.8 -89.1C251.7 -75.7 256.2 -60.9 260 -45.8C263.8 -30.8 266.9 -15.4 270 0L0 0Z" fill="#f1aa47"></path><path d="M0 -202.5C10.6 -193.6 21.1 -184.7 32 -181.3C42.8 -177.9 54 -179.9 65.3 -179.4C76.6 -178.8 87.9 -175.6 99 -171.5C110.1 -167.4 120.9 -162.4 130.2 -155.1C139.4 -147.9 147.1 -138.4 152.5 -128C158 -117.6 161.2 -106.2 166.3 -96C171.4 -85.8 178.4 -76.9 183.6 -66.8C188.8 -56.8 192.1 -45.7 195 -34.4C197.8 -23.1 200.2 -11.5 202.5 0L0 0Z" fill="#f39730"></path><path d="M0 -135C7 -129.1 14.1 -123.2 21.3 -120.9C28.6 -118.6 36 -120 43.5 -119.6C51 -119.2 58.6 -117.1 66 -114.3C73.4 -111.6 80.6 -108.2 86.8 -103.4C92.9 -98.6 98.1 -92.3 101.7 -85.3C105.3 -78.4 107.4 -70.8 110.9 -64C114.3 -57.2 118.9 -51.2 122.4 -44.5C125.9 -37.9 128.1 -30.5 130 -22.9C131.9 -15.4 133.4 -7.7 135 0L0 0Z" fill="#f6821a"></path><path d="M0 -67.5C3.5 -64.5 7 -61.6 10.7 -60.4C14.3 -59.3 18 -60 21.8 -59.8C25.5 -59.6 29.3 -58.5 33 -57.2C36.7 -55.8 40.3 -54.1 43.4 -51.7C46.5 -49.3 49 -46.1 50.8 -42.7C52.7 -39.2 53.7 -35.4 55.4 -32C57.1 -28.6 59.5 -25.6 61.2 -22.3C62.9 -18.9 64 -15.2 65 -11.5C65.9 -7.7 66.7 -3.8 67.5 0L0 0Z" fill="#f7770f"></path></g></svg>