<svg id="visual" viewBox="0 0 960 540" width="960" height="540" xmlns="http://www.w3.org/2000/svg" xmlns:xlink="http://www.w3.org/1999/xlink" version="1.1"><path d="M0 156L137 152L274 158L411 71L549 134L686 154L823 71L960 91L960 541L823 541L686 541L549 541L411 541L274 541L137 541L0 541Z" fill="#f5efbf"></path><path d="M0 148L137 94L274 194L411 194L549 146L686 143L823 157L960 183L960 541L823 541L686 541L549 541L411 541L274 541L137 541L0 541Z" fill="#f2e5ab"></path><path d="M0 155L137 199L274 143L411 135L549 193L686 139L823 218L960 178L960 541L823 541L686 541L549 541L411 541L274 541L137 541L0 541Z" fill="#efda98"></path><path d="M0 184L137 213L274 185L411 207L549 189L686 170L823 208L960 193L960 541L823 541L686 541L549 541L411 541L274 541L137 541L0 541Z" fill="#eecf85"></path><path d="M0 288L137 282L274 265L411 265L549 280L686 278L823 247L960 286L960 541L823 541L686 541L549 541L411 541L274 541L137 541L0 541Z" fill="#edc473"></path><path d="M0 248L137 311L274 295L411 293L549 314L686 247L823 283L960 294L960 541L823 541L686 541L549 541L411 541L274 541L137 541L0 541Z" fill="#edb861"></path><path d="M0 303L137 292L274 314L411 299L549 321L686 326L823 299L960 288L960 541L823 541L686 541L549 541L411 541L274 541L137 541L0 541Z" fill="#edac51"></path><path d="M0 357L137 335L274 328L411 326L549 355L686 354L823 375L960 380L960 541L823 541L686 541L549 541L411 541L274 541L137 541L0 541Z" fill="#ed9f41"></path><path d="M0 380L137 388L274 394L411 390L549 373L686 411L823 407L960 366L960 541L823 541L686 541L549 541L411 541L274 541L137 541L0 541Z" fill="#ee9132"></path><path d="M0 440L137 426L274 404L411 450L549 446L686 416L823 406L960 427L960 541L823 541L686 541L549 541L411 541L274 541L137 541L0 541Z" fill="#ef8324"></path><path d="M0 478L137 447L274 459L411 466L549 479L686 478L823 441L960 463L960 541L823 541L686 541L549 541L411 541L274 541L137 541L0 541Z" fill="#ef7317"></path><path d="M0 504L137 494L274 516L411 478L549 480L686 510L823 494L960 478L960 541L823 541L686 541L549 541L411 541L274 541L137 541L0 541Z" fill="#f0610b"></path></svg>