<svg id="visual" viewBox="0 0 960 540" width="960" height="540" xmlns="http://www.w3.org/2000/svg" xmlns:xlink="http://www.w3.org/1999/xlink" version="1.1"><rect x="0" y="0" width="960" height="540" fill="#7cc1fa"></rect><path d="M0 146L87 138L175 144L262 157L349 121L436 89L524 94L611 142L698 144L785 120L873 114L960 150L960 541L873 541L785 541L698 541L611 541L524 541L436 541L349 541L262 541L175 541L87 541L0 541Z" fill="#f5efbf"></path><path d="M0 174L87 212L175 163L262 152L349 193L436 170L524 165L611 199L698 185L785 164L873 162L960 164L960 541L873 541L785 541L698 541L611 541L524 541L436 541L349 541L262 541L175 541L87 541L0 541Z" fill="#efda98"></path><path d="M0 259L87 250L175 216L262 218L349 234L436 251L524 255L611 231L698 225L785 224L873 271L960 219L960 541L873 541L785 541L698 541L611 541L524 541L436 541L349 541L262 541L175 541L87 541L0 541Z" fill="#edc474"></path><path d="M0 278L87 280L175 279L262 316L349 282L436 324L524 271L611 285L698 313L785 326L873 297L960 311L960 541L873 541L785 541L698 541L611 541L524 541L436 541L349 541L262 541L175 541L87 541L0 541Z" fill="#edac52"></path><path d="M0 363L87 362L175 337L262 348L349 332L436 365L524 381L611 337L698 361L785 342L873 341L960 331L960 541L873 541L785 541L698 541L611 541L524 541L436 541L349 541L262 541L175 541L87 541L0 541Z" fill="#ee9134"></path><path d="M0 430L87 421L175 416L262 435L349 396L436 395L524 409L611 426L698 404L785 427L873 417L960 394L960 541L873 541L785 541L698 541L611 541L524 541L436 541L349 541L262 541L175 541L87 541L0 541Z" fill="#ef731b"></path><path d="M0 490L87 470L175 451L262 459L349 465L436 483L524 463L611 459L698 487L785 455L873 455L960 466L960 541L873 541L785 541L698 541L611 541L524 541L436 541L349 541L262 541L175 541L87 541L0 541Z" fill="#f04c0c"></path></svg>