<svg id="visual" viewBox="0 0 960 540" width="960" height="540" xmlns="http://www.w3.org/2000/svg" xmlns:xlink="http://www.w3.org/1999/xlink" version="1.1"><rect x="0" y="0" width="960" height="540" fill="#7cc1fa"></rect><path d="M0 168L80 158L160 109L240 163L320 184L400 146L480 184L560 178L640 137L720 108L800 187L880 158L960 153L960 541L880 541L800 541L720 541L640 541L560 541L480 541L400 541L320 541L240 541L160 541L80 541L0 541Z" fill="#f5efbf"></path><path d="M0 213L80 197L160 226L240 212L320 176L400 232L480 165L560 188L640 220L720 235L800 192L880 220L960 205L960 541L880 541L800 541L720 541L640 541L560 541L480 541L400 541L320 541L240 541L160 541L80 541L0 541Z" fill="#efda98"></path><path d="M0 268L80 284L160 223L240 279L320 250L400 250L480 271L560 291L640 277L720 282L800 273L880 257L960 245L960 541L880 541L800 541L720 541L640 541L560 541L480 541L400 541L320 541L240 541L160 541L80 541L0 541Z" fill="#edc474"></path><path d="M0 324L80 294L160 297L240 310L320 314L400 316L480 327L560 325L640 331L720 306L800 299L880 315L960 313L960 541L880 541L800 541L720 541L640 541L560 541L480 541L400 541L320 541L240 541L160 541L80 541L0 541Z" fill="#edac52"></path><path d="M0 391L80 360L160 370L240 381L320 370L400 357L480 345L560 379L640 389L720 378L800 344L880 381L960 372L960 541L880 541L800 541L720 541L640 541L560 541L480 541L400 541L320 541L240 541L160 541L80 541L0 541Z" fill="#ee9134"></path><path d="M0 423L80 416L160 420L240 429L320 441L400 417L480 413L560 435L640 438L720 397L800 424L880 397L960 424L960 541L880 541L800 541L720 541L640 541L560 541L480 541L400 541L320 541L240 541L160 541L80 541L0 541Z" fill="#ef731b"></path><path d="M0 456L80 465L160 470L240 478L320 470L400 488L480 463L560 482L640 474L720 462L800 484L880 468L960 479L960 541L880 541L800 541L720 541L640 541L560 541L480 541L400 541L320 541L240 541L160 541L80 541L0 541Z" fill="#f04c0c"></path></svg>