<svg id="visual" viewBox="0 0 960 540" width="960" height="540" xmlns="http://www.w3.org/2000/svg" xmlns:xlink="http://www.w3.org/1999/xlink" version="1.1"><rect x="0" y="0" width="960" height="540" fill="#4FACF7"></rect><path d="M0 171L137 215L274 118L411 222L549 187L686 210L823 183L960 155L960 541L823 541L686 541L549 541L411 541L274 541L137 541L0 541Z" fill="#f5efbf"></path><path d="M0 272L137 218L274 316L411 210L549 244L686 259L823 242L960 185L960 541L823 541L686 541L549 541L411 541L274 541L137 541L0 541Z" fill="#eed28a"></path><path d="M0 312L137 265L274 321L411 336L549 256L686 272L823 270L960 353L960 541L823 541L686 541L549 541L411 541L274 541L137 541L0 541Z" fill="#edb259"></path><path d="M0 354L137 411L274 352L411 341L549 334L686 332L823 420L960 341L960 541L823 541L686 541L549 541L411 541L274 541L137 541L0 541Z" fill="#ee8e2e"></path><path d="M0 417L137 433L274 434L411 461L549 461L686 492L823 478L960 445L960 541L823 541L686 541L549 541L411 541L274 541L137 541L0 541Z" fill="#f0610b"></path></svg>