<svg id="visual" viewBox="0 0 960 540" width="960" height="540" xmlns="http://www.w3.org/2000/svg" xmlns:xlink="http://www.w3.org/1999/xlink" version="1.1"><rect x="0" y="0" width="960" height="540" fill="#7cc1fa"></rect><path d="M0 121L87 112L175 110L262 140L349 152L436 138L524 156L611 122L698 106L785 110L873 138L960 121L960 541L873 541L785 541L698 541L611 541L524 541L436 541L349 541L262 541L175 541L87 541L0 541Z" fill="#f5efbf"></path><path d="M0 205L87 220L175 175L262 201L349 160L436 185L524 172L611 173L698 198L785 152L873 153L960 217L960 541L873 541L785 541L698 541L611 541L524 541L436 541L349 541L262 541L175 541L87 541L0 541Z" fill="#efda98"></path><path d="M0 235L87 250L175 221L262 231L349 256L436 234L524 242L611 274L698 242L785 224L873 272L960 252L960 541L873 541L785 541L698 541L611 541L524 541L436 541L349 541L262 541L175 541L87 541L0 541Z" fill="#edc474"></path><path d="M0 325L87 304L175 284L262 307L349 300L436 319L524 300L611 324L698 305L785 328L873 328L960 306L960 541L873 541L785 541L698 541L611 541L524 541L436 541L349 541L262 541L175 541L87 541L0 541Z" fill="#edac52"></path><path d="M0 376L87 372L175 362L262 354L349 378L436 337L524 351L611 347L698 346L785 383L873 332L960 333L960 541L873 541L785 541L698 541L611 541L524 541L436 541L349 541L262 541L175 541L87 541L0 541Z" fill="#ee9134"></path><path d="M0 410L87 435L175 429L262 431L349 402L436 436L524 429L611 434L698 413L785 430L873 433L960 426L960 541L873 541L785 541L698 541L611 541L524 541L436 541L349 541L262 541L175 541L87 541L0 541Z" fill="#ef731b"></path><path d="M0 472L87 477L175 470L262 454L349 470L436 477L524 472L611 462L698 471L785 473L873 461L960 457L960 541L873 541L785 541L698 541L611 541L524 541L436 541L349 541L262 541L175 541L87 541L0 541Z" fill="#f04c0c"></path></svg>