<svg id="visual" viewBox="0 0 960 540" width="960" height="540" xmlns="http://www.w3.org/2000/svg" xmlns:xlink="http://www.w3.org/1999/xlink" version="1.1"><g stroke-width="1" stroke-linejoin="bevel"><path d="M481.6 263.4L515.6 359.7L535.6 290.6Z" fill="#d9b56b" stroke="#d9b56b"></path><path d="M481.6 263.4L421.4 320.6L515.6 359.7Z" fill="#d5a95b" stroke="#d5a95b"></path><path d="M421.4 320.6L433.4 381.7L515.6 359.7Z" fill="#d09d4c" stroke="#d09d4c"></path><path d="M481.6 263.4L385.1 291.6L421.4 320.6Z" fill="#c8842f" stroke="#c8842f"></path><path d="M421.4 320.6L376.1 366.7L433.4 381.7Z" fill="#d9b56b" stroke="#d9b56b"></path><path d="M515.6 359.7L589.9 270.6L535.6 290.6Z" fill="#cc913d" stroke="#cc913d"></path><path d="M535.6 290.6L589.9 270.6L481.6 263.4Z" fill="#cc913d" stroke="#cc913d"></path><path d="M439.4 192.3L440.4 203.4L505.6 121.3Z" fill="#c8842f" stroke="#c8842f"></path><path d="M481.6 263.4L380.1 247.4L385.1 291.6Z" fill="#c47720" stroke="#c47720"></path><path d="M385.1 291.6L376.1 366.7L421.4 320.6Z" fill="#eee4ae" stroke="#eee4ae"></path><path d="M440.4 203.4L380.1 247.4L481.6 263.4Z" fill="#e8d89c" stroke="#e8d89c"></path><path d="M385.1 291.6L230.8 346.6L376.1 366.7Z" fill="#e3cd8b" stroke="#e3cd8b"></path><path d="M505.6 121.3L440.4 203.4L481.6 263.4Z" fill="#e8d89c" stroke="#e8d89c"></path><path d="M440.4 203.4L439.4 192.3L380.1 247.4Z" fill="#cc913d" stroke="#cc913d"></path><path d="M433.4 381.7L549.6 460.9L515.6 359.7Z" fill="#c8842f" stroke="#c8842f"></path><path d="M515.6 359.7L632.9 417.7L589.9 270.6Z" fill="#c8842f" stroke="#c8842f"></path><path d="M429.4 497.9L549.6 460.9L433.4 381.7Z" fill="#dec17b" stroke="#dec17b"></path><path d="M549.6 460.9L632.9 417.7L515.6 359.7Z" fill="#c47720" stroke="#c47720"></path><path d="M648.9 218.4L619.9 195.3L589.9 270.6Z" fill="#eee4ae" stroke="#eee4ae"></path><path d="M589.9 270.6L619.9 195.3L481.6 263.4Z" fill="#dec17b" stroke="#dec17b"></path><path d="M704.2 315.6L648.9 218.4L589.9 270.6Z" fill="#d09d4c" stroke="#d09d4c"></path><path d="M549.6 460.9L590.9 476.9L632.9 417.7Z" fill="#e3cd8b" stroke="#e3cd8b"></path><path d="M376.1 366.7L429.4 497.9L433.4 381.7Z" fill="#dec17b" stroke="#dec17b"></path><path d="M549.6 460.9L551.6 540L590.9 476.9Z" fill="#d9b56b" stroke="#d9b56b"></path><path d="M619.9 195.3L505.6 121.3L481.6 263.4Z" fill="#c8842f" stroke="#c8842f"></path><path d="M439.4 192.3L388.1 114.3L380.1 247.4Z" fill="#c47720" stroke="#c47720"></path><path d="M505.6 121.3L471.4 101.1L439.4 192.3Z" fill="#eee4ae" stroke="#eee4ae"></path><path d="M632.9 417.7L704.2 315.6L589.9 270.6Z" fill="#f5efbf" stroke="#f5efbf"></path><path d="M619.9 195.3L534.6 103.1L505.6 121.3Z" fill="#d5a95b" stroke="#d5a95b"></path><path d="M505.6 121.3L534.6 103.1L471.4 101.1Z" fill="#eee4ae" stroke="#eee4ae"></path><path d="M604.9 37.1L534.6 103.1L619.9 195.3Z" fill="#e8d89c" stroke="#e8d89c"></path><path d="M471.4 101.1L388.1 114.3L439.4 192.3Z" fill="#eee4ae" stroke="#eee4ae"></path><path d="M346.1 540L436.4 540L429.4 497.9Z" fill="#dec17b" stroke="#dec17b"></path><path d="M429.4 497.9L551.6 540L549.6 460.9Z" fill="#cc913d" stroke="#cc913d"></path><path d="M736.2 464.9L735.2 397.7L632.9 417.7Z" fill="#c47720" stroke="#c47720"></path><path d="M632.9 417.7L735.2 397.7L704.2 315.6Z" fill="#e3cd8b" stroke="#e3cd8b"></path><path d="M436.4 540L551.6 540L429.4 497.9Z" fill="#eee4ae" stroke="#eee4ae"></path><path d="M704.2 315.6L712.2 230.4L648.9 218.4Z" fill="#c47720" stroke="#c47720"></path><path d="M648.9 218.4L715.2 187.3L619.9 195.3Z" fill="#c8842f" stroke="#c8842f"></path><path d="M253.8 429.9L327.1 501.9L376.1 366.7Z" fill="#f5efbf" stroke="#f5efbf"></path><path d="M376.1 366.7L327.1 501.9L429.4 497.9Z" fill="#c8842f" stroke="#c8842f"></path><path d="M251.8 213.4L385.1 291.6L380.1 247.4Z" fill="#cc913d" stroke="#cc913d"></path><path d="M388.1 114.3L271.8 195.3L380.1 247.4Z" fill="#f5efbf" stroke="#f5efbf"></path><path d="M271.8 195.3L251.8 213.4L380.1 247.4Z" fill="#d5a95b" stroke="#d5a95b"></path><path d="M712.2 230.4L715.2 187.3L648.9 218.4Z" fill="#dec17b" stroke="#dec17b"></path><path d="M685.2 540L632.9 417.7L590.9 476.9Z" fill="#f5efbf" stroke="#f5efbf"></path><path d="M801.5 266.6L764.5 217.4L712.2 230.4Z" fill="#d5a95b" stroke="#d5a95b"></path><path d="M712.2 230.4L764.5 217.4L715.2 187.3Z" fill="#d09d4c" stroke="#d09d4c"></path><path d="M551.6 540L617.9 540L590.9 476.9Z" fill="#dec17b" stroke="#dec17b"></path><path d="M251.8 213.4L230.8 346.6L385.1 291.6Z" fill="#c8842f" stroke="#c8842f"></path><path d="M230.8 346.6L253.8 429.9L376.1 366.7Z" fill="#cc913d" stroke="#cc913d"></path><path d="M255.8 540L346.1 540L327.1 501.9Z" fill="#e8d89c" stroke="#e8d89c"></path><path d="M327.1 501.9L346.1 540L429.4 497.9Z" fill="#d9b56b" stroke="#d9b56b"></path><path d="M230.8 346.6L227.8 412.7L253.8 429.9Z" fill="#eee4ae" stroke="#eee4ae"></path><path d="M253.8 429.9L255.8 540L327.1 501.9Z" fill="#c8842f" stroke="#c8842f"></path><path d="M685.2 540L736.2 464.9L632.9 417.7Z" fill="#e3cd8b" stroke="#e3cd8b"></path><path d="M801.5 266.6L704.2 315.6L804.5 392.7Z" fill="#dec17b" stroke="#dec17b"></path><path d="M801.5 266.6L712.2 230.4L704.2 315.6Z" fill="#e8d89c" stroke="#e8d89c"></path><path d="M617.9 540L685.2 540L590.9 476.9Z" fill="#c47720" stroke="#c47720"></path><path d="M699.2 91.1L619.9 195.3L715.2 187.3Z" fill="#e8d89c" stroke="#e8d89c"></path><path d="M699.2 91.1L604.9 37.1L619.9 195.3Z" fill="#dec17b" stroke="#dec17b"></path><path d="M534.6 103.1L508.6 0L471.4 101.1Z" fill="#d5a95b" stroke="#d5a95b"></path><path d="M431.4 0L340.1 51.1L388.1 114.3Z" fill="#c47720" stroke="#c47720"></path><path d="M431.4 0L388.1 114.3L471.4 101.1Z" fill="#e8d89c" stroke="#e8d89c"></path><path d="M388.1 114.3L275.8 70.1L271.8 195.3Z" fill="#c47720" stroke="#c47720"></path><path d="M271.8 195.3L194.5 124.3L251.8 213.4Z" fill="#eee4ae" stroke="#eee4ae"></path><path d="M754.5 108.1L699.2 91.1L715.2 187.3Z" fill="#e3cd8b" stroke="#e3cd8b"></path><path d="M811.5 540L764.5 464.9L736.2 464.9Z" fill="#d09d4c" stroke="#d09d4c"></path><path d="M736.2 464.9L764.5 464.9L735.2 397.7Z" fill="#e8d89c" stroke="#e8d89c"></path><path d="M604.9 37.1L508.6 0L534.6 103.1Z" fill="#d09d4c" stroke="#d09d4c"></path><path d="M804.5 392.7L704.2 315.6L735.2 397.7Z" fill="#f5efbf" stroke="#f5efbf"></path><path d="M764.5 217.4L754.5 108.1L715.2 187.3Z" fill="#c8842f" stroke="#c8842f"></path><path d="M508.6 0L431.4 0L471.4 101.1Z" fill="#f5efbf" stroke="#f5efbf"></path><path d="M764.5 464.9L804.5 392.7L735.2 397.7Z" fill="#f5efbf" stroke="#f5efbf"></path><path d="M149.5 465.9L255.8 540L253.8 429.9Z" fill="#d5a95b" stroke="#d5a95b"></path><path d="M301.8 0L275.8 70.1L340.1 51.1Z" fill="#d9b56b" stroke="#d9b56b"></path><path d="M340.1 51.1L275.8 70.1L388.1 114.3Z" fill="#c8842f" stroke="#c8842f"></path><path d="M147.5 263.4L163.5 289.6L251.8 213.4Z" fill="#c8842f" stroke="#c8842f"></path><path d="M251.8 213.4L163.5 289.6L230.8 346.6Z" fill="#d5a95b" stroke="#d5a95b"></path><path d="M230.8 346.6L132.5 367.7L227.8 412.7Z" fill="#e8d89c" stroke="#e8d89c"></path><path d="M227.8 412.7L149.5 465.9L253.8 429.9Z" fill="#d09d4c" stroke="#d09d4c"></path><path d="M698.2 0L607.9 0L604.9 37.1Z" fill="#eee4ae" stroke="#eee4ae"></path><path d="M824.5 178.3L754.5 108.1L764.5 217.4Z" fill="#dec17b" stroke="#dec17b"></path><path d="M698.2 0L604.9 37.1L699.2 91.1Z" fill="#e3cd8b" stroke="#e3cd8b"></path><path d="M604.9 37.1L607.9 0L508.6 0Z" fill="#cc913d" stroke="#cc913d"></path><path d="M194.5 124.3L147.5 263.4L251.8 213.4Z" fill="#d9b56b" stroke="#d9b56b"></path><path d="M163.5 289.6L132.5 367.7L230.8 346.6Z" fill="#c47720" stroke="#c47720"></path><path d="M856.7 308.6L834.7 253.4L801.5 266.6Z" fill="#e3cd8b" stroke="#e3cd8b"></path><path d="M801.5 266.6L834.7 253.4L764.5 217.4Z" fill="#c47720" stroke="#c47720"></path><path d="M275.8 70.1L194.5 124.3L271.8 195.3Z" fill="#d09d4c" stroke="#d09d4c"></path><path d="M431.4 0L314.1 0L340.1 51.1Z" fill="#eee4ae" stroke="#eee4ae"></path><path d="M275.8 70.1L200.5 67.1L194.5 124.3Z" fill="#c8842f" stroke="#c8842f"></path><path d="M61.3 345.6L132.5 367.7L163.5 289.6Z" fill="#d9b56b" stroke="#d9b56b"></path><path d="M834.7 253.4L824.5 178.3L764.5 217.4Z" fill="#c8842f" stroke="#c8842f"></path><path d="M314.1 0L301.8 0L340.1 51.1Z" fill="#c8842f" stroke="#c8842f"></path><path d="M804.5 392.7L856.7 308.6L801.5 266.6Z" fill="#f5efbf" stroke="#f5efbf"></path><path d="M834.7 253.4L873.7 195.3L824.5 178.3Z" fill="#dec17b" stroke="#dec17b"></path><path d="M908.7 392.7L856.7 308.6L804.5 392.7Z" fill="#cc913d" stroke="#cc913d"></path><path d="M132.5 367.7L149.5 465.9L227.8 412.7Z" fill="#d09d4c" stroke="#d09d4c"></path><path d="M791.5 0L698.2 0L754.5 108.1Z" fill="#f5efbf" stroke="#f5efbf"></path><path d="M754.5 108.1L698.2 0L699.2 91.1Z" fill="#c8842f" stroke="#c8842f"></path><path d="M301.8 0L200.5 67.1L275.8 70.1Z" fill="#cc913d" stroke="#cc913d"></path><path d="M194.5 124.3L107.3 119.3L147.5 263.4Z" fill="#eee4ae" stroke="#eee4ae"></path><path d="M685.2 540L811.5 540L736.2 464.9Z" fill="#d5a95b" stroke="#d5a95b"></path><path d="M764.5 464.9L857.7 460.9L804.5 392.7Z" fill="#e8d89c" stroke="#e8d89c"></path><path d="M811.5 540L857.7 460.9L764.5 464.9Z" fill="#dec17b" stroke="#dec17b"></path><path d="M149.5 465.9L162.5 540L255.8 540Z" fill="#d9b56b" stroke="#d9b56b"></path><path d="M960 222.4L873.7 195.3L834.7 253.4Z" fill="#c8842f" stroke="#c8842f"></path><path d="M889.7 94.1L791.5 0L754.5 108.1Z" fill="#c8842f" stroke="#c8842f"></path><path d="M960 222.4L834.7 253.4L856.7 308.6Z" fill="#f5efbf" stroke="#f5efbf"></path><path d="M960 409.7L908.7 392.7L960 435.9Z" fill="#e3cd8b" stroke="#e3cd8b"></path><path d="M857.7 460.9L908.7 392.7L804.5 392.7Z" fill="#d9b56b" stroke="#d9b56b"></path><path d="M200.5 67.1L107.3 119.3L194.5 124.3Z" fill="#cc913d" stroke="#cc913d"></path><path d="M147.5 263.4L61.3 345.6L163.5 289.6Z" fill="#dec17b" stroke="#dec17b"></path><path d="M123.3 40.1L107.3 119.3L200.5 67.1Z" fill="#cc913d" stroke="#cc913d"></path><path d="M132.5 367.7L57.3 422.7L149.5 465.9Z" fill="#f5efbf" stroke="#f5efbf"></path><path d="M149.5 465.9L54.3 540L162.5 540Z" fill="#cc913d" stroke="#cc913d"></path><path d="M62.3 205.4L61.3 345.6L147.5 263.4Z" fill="#eee4ae" stroke="#eee4ae"></path><path d="M811.5 540L855.7 540L857.7 460.9Z" fill="#d09d4c" stroke="#d09d4c"></path><path d="M889.7 94.1L754.5 108.1L824.5 178.3Z" fill="#cc913d" stroke="#cc913d"></path><path d="M107.3 119.3L62.3 205.4L147.5 263.4Z" fill="#eee4ae" stroke="#eee4ae"></path><path d="M46.3 454.9L57.3 422.7L0 407.7Z" fill="#d9b56b" stroke="#d9b56b"></path><path d="M61.3 345.6L57.3 422.7L132.5 367.7Z" fill="#dec17b" stroke="#dec17b"></path><path d="M301.8 0L161.5 0L200.5 67.1Z" fill="#dec17b" stroke="#dec17b"></path><path d="M0 123.3L0 229.4L62.3 205.4Z" fill="#c47720" stroke="#c47720"></path><path d="M960 115.3L889.7 94.1L873.7 195.3Z" fill="#d09d4c" stroke="#d09d4c"></path><path d="M873.7 195.3L889.7 94.1L824.5 178.3Z" fill="#e8d89c" stroke="#e8d89c"></path><path d="M161.5 0L123.3 40.1L200.5 67.1Z" fill="#d5a95b" stroke="#d5a95b"></path><path d="M0 407.7L57.3 422.7L61.3 345.6Z" fill="#c8842f" stroke="#c8842f"></path><path d="M57.3 422.7L46.3 454.9L149.5 465.9Z" fill="#c47720" stroke="#c47720"></path><path d="M960 409.7L960 340.6L908.7 392.7Z" fill="#cc913d" stroke="#cc913d"></path><path d="M908.7 392.7L960 340.6L856.7 308.6Z" fill="#d9b56b" stroke="#d9b56b"></path><path d="M960 340.6L960 222.4L856.7 308.6Z" fill="#e3cd8b" stroke="#e3cd8b"></path><path d="M960 435.9L908.7 392.7L857.7 460.9Z" fill="#c8842f" stroke="#c8842f"></path><path d="M889.7 94.1L856.7 0L791.5 0Z" fill="#c8842f" stroke="#c8842f"></path><path d="M960 45.1L856.7 0L889.7 94.1Z" fill="#c8842f" stroke="#c8842f"></path><path d="M960 540L960 435.9L857.7 460.9Z" fill="#e3cd8b" stroke="#e3cd8b"></path><path d="M46.3 454.9L54.3 540L149.5 465.9Z" fill="#c8842f" stroke="#c8842f"></path><path d="M0 229.4L0 347.6L61.3 345.6Z" fill="#dec17b" stroke="#dec17b"></path><path d="M46.3 454.9L0 540L54.3 540Z" fill="#c47720" stroke="#c47720"></path><path d="M0 229.4L61.3 345.6L62.3 205.4Z" fill="#d5a95b" stroke="#d5a95b"></path><path d="M0 123.3L62.3 205.4L107.3 119.3Z" fill="#eee4ae" stroke="#eee4ae"></path><path d="M0 347.6L0 407.7L61.3 345.6Z" fill="#e8d89c" stroke="#e8d89c"></path><path d="M161.5 0L98.3 0L123.3 40.1Z" fill="#c47720" stroke="#c47720"></path><path d="M0 71.1L0 123.3L107.3 119.3Z" fill="#d09d4c" stroke="#d09d4c"></path><path d="M0 407.7L0 458.9L46.3 454.9Z" fill="#dec17b" stroke="#dec17b"></path><path d="M960 222.4L960 115.3L873.7 195.3Z" fill="#c8842f" stroke="#c8842f"></path><path d="M855.7 540L960 540L857.7 460.9Z" fill="#d09d4c" stroke="#d09d4c"></path><path d="M0 71.1L107.3 119.3L123.3 40.1Z" fill="#dec17b" stroke="#dec17b"></path><path d="M0 458.9L0 540L46.3 454.9Z" fill="#c8842f" stroke="#c8842f"></path><path d="M960 115.3L960 45.1L889.7 94.1Z" fill="#f5efbf" stroke="#f5efbf"></path><path d="M98.3 0L0 71.1L123.3 40.1Z" fill="#c47720" stroke="#c47720"></path><path d="M960 45.1L960 0L856.7 0Z" fill="#e8d89c" stroke="#e8d89c"></path><path d="M98.3 0L0 0L0 71.1Z" fill="#d5a95b" stroke="#d5a95b"></path></g></svg>