<svg id="visual" viewBox="0 0 900 600" width="900" height="600" xmlns="http://www.w3.org/2000/svg" xmlns:xlink="http://www.w3.org/1999/xlink" version="1.1"><path d="M0 61L90 91L180 67L270 91L360 85L450 91L540 115L630 109L720 109L810 103L900 61L900 0L810 0L720 0L630 0L540 0L450 0L360 0L270 0L180 0L90 0L0 0Z" fill="#f5efbf"></path><path d="M0 313L90 235L180 283L270 211L360 205L450 295L540 343L630 301L720 205L810 253L900 175L900 59L810 101L720 107L630 107L540 113L450 89L360 83L270 89L180 65L90 89L0 59Z" fill="#dec789"></path><path d="M0 421L90 313L180 385L270 325L360 355L450 409L540 427L630 415L720 337L810 319L900 319L900 173L810 251L720 203L630 299L540 341L450 293L360 203L270 209L180 281L90 233L0 311Z" fill="#ca9f58"></path><path d="M0 529L90 517L180 547L270 529L360 547L450 511L540 559L630 547L720 505L810 541L900 511L900 317L810 317L720 335L630 413L540 425L450 407L360 353L270 323L180 383L90 311L0 419Z" fill="#b7752c"></path><path d="M0 601L90 601L180 601L270 601L360 601L450 601L540 601L630 601L720 601L810 601L900 601L900 509L810 539L720 503L630 545L540 557L450 509L360 545L270 527L180 545L90 515L0 527Z" fill="#a34900"></path></svg>