<svg id="visual" viewBox="0 0 960 540" width="960" height="540" xmlns="http://www.w3.org/2000/svg" xmlns:xlink="http://www.w3.org/1999/xlink" version="1.1"><path d="M0 125L87 222L175 255L262 163L349 201L436 249L524 185L611 217L698 114L785 233L873 206L960 179L960 0L873 0L785 0L698 0L611 0L524 0L436 0L349 0L262 0L175 0L87 0L0 0Z" fill="#f5efbf"></path><path d="M0 374L87 384L175 438L262 449L349 433L436 379L524 384L611 401L698 357L785 368L873 433L960 374L960 177L873 204L785 231L698 112L611 215L524 183L436 247L349 199L262 161L175 253L87 220L0 123Z" fill="#ebc87d"></path><path d="M0 541L87 541L175 541L262 541L349 541L436 541L524 541L611 541L698 541L785 541L873 541L960 541L960 372L873 431L785 366L698 355L611 399L524 382L436 377L349 431L262 447L175 436L87 382L0 372Z" fill="#e89b44"></path></svg>